<svg id="Capa_1" data-name="Capa 1" xmlns="http://www.w3.org/2000/svg" viewBox="0 0 48.93 29.93"><defs><style>.cls-1-yt{fill:#22b8c6;}.cls-2-yt{fill:#fff;}</style></defs><rect class="cls-1-yt" width="48.93" height="29.93" rx="14.97"/><path class="cls-2-yt" d="M-64,102.48c-.55-.65-1.56-.92-3.48-.92h-7c-2,0-3,.28-3.55,1s-.53,1.67-.53,3v2.62c0,2.67.63,4,4.08,4h7c1.67,0,2.59-.23,3.19-.8s.88-1.55.88-3.22v-2.62C-63.37,104.13-63.41,103.13-64,102.48Zm-4.83,4.77L-72,108.92a.59.59,0,0,1-.23,0,.45.45,0,0,1-.25-.07.49.49,0,0,1-.24-.42v-3.31a.49.49,0,0,1,.24-.42.48.48,0,0,1,.48,0l3.18,1.65a.48.48,0,0,1,.26.43A.48.48,0,0,1-68.79,107.25Z" transform="translate(95.41 -91.92)"/></svg>