<svg id="Capa_1" data-name="Capa 1" xmlns="http://www.w3.org/2000/svg" viewBox="0 0 48.93 29.93"><defs><style>.cls-1-in{fill:#22b8c6;}.cls-2-in{fill:#fff;}</style></defs><rect class="cls-1-in" width="48.93" height="29.93" rx="14.97"/><path class="cls-2-in" d="M-122.06,112.91h0v-4.6c0-2.25-.48-4-3.11-4a2.73,2.73,0,0,0-2.45,1.35h0v-1.14h-2.49v8.37h2.59v-4.15c0-1.09.21-2.14,1.56-2.14s1.35,1.24,1.35,2.21v4.08Z" transform="translate(152.78 -91.68)"/><path class="cls-2-in" d="M-134.37,104.54h2.59v8.37h-2.59Z" transform="translate(152.78 -91.68)"/><path class="cls-2-in" d="M-133.08,100.38a1.5,1.5,0,0,0-1.5,1.5,1.51,1.51,0,0,0,1.5,1.52,1.52,1.52,0,0,0,1.51-1.52A1.51,1.51,0,0,0-133.08,100.38Z" transform="translate(152.78 -91.68)"/></svg>