<svg id="Capa_1" data-name="Capa 1" xmlns="http://www.w3.org/2000/svg" viewBox="0 0 48.93 29.93"><defs><style>.cls-1-ins{fill:#22b8c6;}.cls-2-ins{fill:#fff;}</style></defs><rect class="cls-1-ins" width="48.93" height="29.93" rx="14.97"/><path class="cls-2-ins" d="M-177.79,104.33a5.12,5.12,0,0,0-.32-1.65,3.26,3.26,0,0,0-.79-1.21,3.41,3.41,0,0,0-1.2-.78,4.92,4.92,0,0,0-1.66-.32c-.73,0-1,0-2.81,0s-2.08,0-2.8,0a4.87,4.87,0,0,0-1.66.32,3.28,3.28,0,0,0-1.2.78,3.34,3.34,0,0,0-.79,1.21,5.12,5.12,0,0,0-.32,1.65c0,.73,0,1,0,2.81s0,2.08,0,2.81a4.86,4.86,0,0,0,.32,1.65,3.26,3.26,0,0,0,.79,1.21,3.28,3.28,0,0,0,1.2.78,4.86,4.86,0,0,0,1.65.32c.73,0,1,0,2.81,0s2.08,0,2.81,0a4.86,4.86,0,0,0,1.65-.32,3.43,3.43,0,0,0,2-2,4.86,4.86,0,0,0,.32-1.65c0-.73,0-1,0-2.81S-177.76,105.06-177.79,104.33ZM-179,109.9a3.87,3.87,0,0,1-.23,1.26,2.26,2.26,0,0,1-1.3,1.29,3.55,3.55,0,0,1-1.26.24c-.72,0-.94,0-2.75,0s-2,0-2.76,0a3.55,3.55,0,0,1-1.26-.24,2.11,2.11,0,0,1-.78-.51,2,2,0,0,1-.51-.78,3.87,3.87,0,0,1-.23-1.26c0-.72,0-.94,0-2.75s0-2,0-2.75a3.89,3.89,0,0,1,.23-1.27,2.11,2.11,0,0,1,.51-.78,2.11,2.11,0,0,1,.78-.51,3.89,3.89,0,0,1,1.27-.23c.72,0,.93,0,2.75,0s2,0,2.75,0a3.75,3.75,0,0,1,1.26.23,2.07,2.07,0,0,1,.79.51,2.24,2.24,0,0,1,.51.78,3.89,3.89,0,0,1,.23,1.27c0,.71,0,.93,0,2.75S-179,109.18-179,109.9Z" transform="translate(209.04 -92.17)"/><path class="cls-2-ins" d="M-184.57,103.64a3.5,3.5,0,0,0-3.5,3.5,3.5,3.5,0,0,0,3.5,3.5,3.5,3.5,0,0,0,3.5-3.5A3.5,3.5,0,0,0-184.57,103.64Zm0,5.77a2.27,2.27,0,0,1-2.27-2.27,2.27,2.27,0,0,1,2.27-2.27,2.27,2.27,0,0,1,2.27,2.27A2.27,2.27,0,0,1-184.57,109.41Z" transform="translate(209.04 -92.17)"/><path class="cls-2-ins" d="M-180.11,103.5a.82.82,0,0,1-.82.82.82.82,0,0,1-.82-.82.82.82,0,0,1,.82-.81A.82.82,0,0,1-180.11,103.5Z" transform="translate(209.04 -92.17)"/></svg>